<svg width="124" height="33" viewBox="0 0 124 33" fill="none" xmlns="http://www.w3.org/2000/svg">
<path d="M8.3168 10.2065C9.78346 10.2065 11.0635 10.4932 12.1568 11.0665C13.2501 11.6398 14.0968 12.4665 14.6968 13.5465C15.3101 14.6132 15.6168 15.9132 15.6168 17.4465C15.6168 18.9398 15.3035 20.2465 14.6768 21.3665C14.0635 22.4865 13.2035 23.3598 12.0968 23.9865C10.9901 24.6132 9.72346 24.9265 8.2968 24.9265C6.84346 24.9265 5.56346 24.6398 4.4568 24.0665C3.36346 23.4932 2.51013 22.6665 1.8968 21.5865C1.2968 20.5065 0.996797 19.2065 0.996797 17.6865C0.996797 16.1932 1.31013 14.8865 1.9368 13.7665C2.5768 12.6465 3.44346 11.7732 4.5368 11.1465C5.63013 10.5198 6.89013 10.2065 8.3168 10.2065ZM8.2368 10.5665C7.53013 10.5665 6.9168 10.8665 6.3968 11.4665C5.8768 12.0665 5.47013 12.8932 5.1768 13.9465C4.8968 14.9998 4.7568 16.2198 4.7568 17.6065C4.7568 19.0198 4.9168 20.2532 5.2368 21.3065C5.57013 22.3465 6.01013 23.1532 6.5568 23.7265C7.10346 24.2865 7.71013 24.5665 8.3768 24.5665C9.08346 24.5665 9.6968 24.2665 10.2168 23.6665C10.7501 23.0665 11.1568 22.2398 11.4368 21.1865C11.7168 20.1198 11.8568 18.8998 11.8568 17.5265C11.8568 16.0998 11.6968 14.8665 11.3768 13.8265C11.0568 12.7865 10.6168 11.9865 10.0568 11.4265C9.51013 10.8532 8.90346 10.5665 8.2368 10.5665ZM30.252 10.4865V10.8865C29.852 10.9532 29.5453 11.0798 29.332 11.2665C29.1186 11.4532 28.972 11.7398 28.892 12.1265C28.8253 12.5132 28.792 13.0598 28.792 13.7665V24.6665C28.6186 24.6398 28.432 24.6265 28.232 24.6265C28.032 24.6265 27.8186 24.6398 27.592 24.6665L18.812 14.3265V21.0465C18.812 21.8598 18.852 22.4865 18.932 22.9265C19.012 23.3532 19.192 23.6598 19.472 23.8465C19.752 24.0332 20.192 24.1665 20.792 24.2465V24.6465C20.5386 24.6198 20.1986 24.6065 19.772 24.6065C19.3586 24.5932 18.9653 24.5865 18.592 24.5865C18.2986 24.5865 17.992 24.5932 17.672 24.6065C17.3653 24.6065 17.1053 24.6198 16.892 24.6465V24.2465C17.3186 24.1665 17.632 24.0398 17.832 23.8665C18.0453 23.6798 18.1853 23.3932 18.252 23.0065C18.3186 22.6065 18.352 22.0598 18.352 21.3665V12.6065C18.352 12.1131 18.3186 11.7532 18.252 11.5265C18.1853 11.2865 18.0453 11.1265 17.832 11.0465C17.6186 10.9532 17.3053 10.8998 16.892 10.8865V10.4865C17.1053 10.4998 17.3653 10.5132 17.672 10.5265C17.992 10.5398 18.2986 10.5465 18.592 10.5465C18.9253 10.5465 19.2453 10.5398 19.552 10.5265C19.8586 10.5132 20.1386 10.4998 20.392 10.4865L28.332 19.5665V14.0865C28.332 13.2732 28.292 12.6532 28.212 12.2265C28.1453 11.7865 27.972 11.4732 27.692 11.2865C27.4253 11.0865 26.9786 10.9532 26.352 10.8865V10.4865C26.6186 10.4998 26.9586 10.5132 27.372 10.5265C27.7986 10.5398 28.192 10.5465 28.552 10.5465C28.872 10.5465 29.1853 10.5398 29.492 10.5265C29.7986 10.5132 30.052 10.4998 30.252 10.4865Z" fill="#E3E3E3" fill-opacity="0.6"/>
<path d="M91.5902 10.2065C93.0569 10.2065 94.3369 10.4932 95.4302 11.0665C96.5236 11.6398 97.3702 12.4665 97.9702 13.5465C98.5836 14.6132 98.8902 15.9132 98.8902 17.4465C98.8902 18.9398 98.5769 20.2465 97.9502 21.3665C97.3369 22.4865 96.4769 23.3598 95.3702 23.9865C94.2636 24.6132 92.9969 24.9265 91.5702 24.9265C90.1169 24.9265 88.8369 24.6398 87.7302 24.0665C86.6369 23.4932 85.7836 22.6665 85.1702 21.5865C84.5702 20.5065 84.2702 19.2065 84.2702 17.6865C84.2702 16.1932 84.5836 14.8865 85.2102 13.7665C85.8502 12.6465 86.7169 11.7732 87.8102 11.1465C88.9036 10.5198 90.1636 10.2065 91.5902 10.2065ZM91.5102 10.5665C90.8036 10.5665 90.1902 10.8665 89.6702 11.4665C89.1502 12.0665 88.7436 12.8932 88.4502 13.9465C88.1702 14.9998 88.0302 16.2198 88.0302 17.6065C88.0302 19.0198 88.1902 20.2532 88.5102 21.3065C88.8436 22.3465 89.2836 23.1532 89.8302 23.7265C90.3769 24.2865 90.9836 24.5665 91.6502 24.5665C92.3569 24.5665 92.9702 24.2665 93.4902 23.6665C94.0236 23.0665 94.4302 22.2398 94.7102 21.1865C94.9902 20.1198 95.1302 18.8998 95.1302 17.5265C95.1302 16.0998 94.9702 14.8665 94.6502 13.8265C94.3302 12.7865 93.8902 11.9865 93.3302 11.4265C92.7836 10.8532 92.1769 10.5665 91.5102 10.5665ZM111.085 10.4865C111.032 11.1265 110.992 11.7398 110.965 12.3265C110.952 12.9132 110.945 13.3665 110.945 13.6865C110.945 13.9798 110.952 14.2532 110.965 14.5065C110.979 14.7598 110.992 14.9798 111.005 15.1665H110.545C110.345 14.0998 110.065 13.2598 109.705 12.6465C109.359 12.0198 108.952 11.5798 108.485 11.3265C108.032 11.0732 107.532 10.9465 106.985 10.9465H106.525C106.165 10.9465 105.885 10.9798 105.685 11.0465C105.499 11.0998 105.372 11.2198 105.305 11.4065C105.252 11.5932 105.225 11.8865 105.225 12.2865V22.3665C105.225 22.8998 105.279 23.2998 105.385 23.5665C105.492 23.8198 105.705 23.9865 106.025 24.0665C106.345 24.1465 106.805 24.1932 107.405 24.2065V24.6465C106.965 24.6332 106.399 24.6198 105.705 24.6065C105.012 24.5932 104.285 24.5865 103.525 24.5865C102.925 24.5865 102.332 24.5932 101.745 24.6065C101.172 24.6198 100.639 24.6332 100.145 24.6465V24.2465C100.559 24.2198 100.865 24.1665 101.065 24.0865C101.279 24.0065 101.419 23.8465 101.485 23.6065C101.565 23.3665 101.605 23.0065 101.605 22.5265V12.6065C101.605 12.1131 101.565 11.7532 101.485 11.5265C101.419 11.2865 101.279 11.1265 101.065 11.0465C100.865 10.9532 100.559 10.8998 100.145 10.8865V10.4865C100.719 10.4998 101.319 10.5132 101.945 10.5265C102.585 10.5265 103.212 10.5332 103.825 10.5465C104.452 10.5465 105.032 10.5465 105.565 10.5465C106.112 10.5465 106.559 10.5465 106.905 10.5465C107.519 10.5465 108.212 10.5465 108.985 10.5465C109.772 10.5332 110.472 10.5132 111.085 10.4865ZM108.145 17.3665C108.145 17.3665 108.145 17.4332 108.145 17.5665C108.145 17.6998 108.145 17.7665 108.145 17.7665H104.625C104.625 17.7665 104.625 17.6998 104.625 17.5665C104.625 17.4332 104.625 17.3665 104.625 17.3665H108.145ZM108.685 14.7265C108.632 15.4865 108.605 16.0665 108.605 16.4665C108.619 16.8665 108.625 17.2332 108.625 17.5665C108.625 17.8998 108.632 18.2665 108.645 18.6665C108.659 19.0665 108.692 19.6465 108.745 20.4065H108.285C108.205 19.9265 108.059 19.4865 107.845 19.0865C107.632 18.6865 107.345 18.3665 106.985 18.1265C106.639 17.8865 106.199 17.7665 105.665 17.7665V17.3665C106.052 17.3665 106.392 17.2865 106.685 17.1265C106.979 16.9532 107.225 16.7332 107.425 16.4665C107.639 16.1998 107.812 15.9132 107.945 15.6065C108.079 15.2998 108.172 15.0065 108.225 14.7265H108.685ZM123.078 10.4865C123.024 11.1265 122.984 11.7398 122.958 12.3265C122.944 12.9132 122.938 13.3665 122.938 13.6865C122.938 13.9798 122.944 14.2532 122.958 14.5065C122.971 14.7598 122.984 14.9798 122.998 15.1665H122.538C122.338 14.0998 122.058 13.2598 121.698 12.6465C121.351 12.0198 120.944 11.5798 120.478 11.3265C120.024 11.0732 119.524 10.9465 118.978 10.9465H118.518C118.158 10.9465 117.878 10.9798 117.678 11.0465C117.491 11.0998 117.364 11.2198 117.298 11.4065C117.244 11.5932 117.218 11.8865 117.218 12.2865V22.3665C117.218 22.8998 117.271 23.2998 117.378 23.5665C117.484 23.8198 117.698 23.9865 118.018 24.0665C118.338 24.1465 118.798 24.1932 119.398 24.2065V24.6465C118.958 24.6332 118.391 24.6198 117.698 24.6065C117.004 24.5932 116.278 24.5865 115.518 24.5865C114.918 24.5865 114.324 24.5932 113.738 24.6065C113.164 24.6198 112.631 24.6332 112.138 24.6465V24.2465C112.551 24.2198 112.858 24.1665 113.058 24.0865C113.271 24.0065 113.411 23.8465 113.478 23.6065C113.558 23.3665 113.598 23.0065 113.598 22.5265V12.6065C113.598 12.1131 113.558 11.7532 113.478 11.5265C113.411 11.2865 113.271 11.1265 113.058 11.0465C112.858 10.9532 112.551 10.8998 112.138 10.8865V10.4865C112.711 10.4998 113.311 10.5132 113.938 10.5265C114.578 10.5265 115.204 10.5332 115.818 10.5465C116.444 10.5465 117.024 10.5465 117.558 10.5465C118.104 10.5465 118.551 10.5465 118.898 10.5465C119.511 10.5465 120.204 10.5465 120.978 10.5465C121.764 10.5332 122.464 10.5132 123.078 10.4865ZM120.138 17.3665C120.138 17.3665 120.138 17.4332 120.138 17.5665C120.138 17.6998 120.138 17.7665 120.138 17.7665H116.618C116.618 17.7665 116.618 17.6998 116.618 17.5665C116.618 17.4332 116.618 17.3665 116.618 17.3665H120.138ZM120.678 14.7265C120.624 15.4865 120.598 16.0665 120.598 16.4665C120.611 16.8665 120.618 17.2332 120.618 17.5665C120.618 17.8998 120.624 18.2665 120.638 18.6665C120.651 19.0665 120.684 19.6465 120.738 20.4065H120.278C120.198 19.9265 120.051 19.4865 119.838 19.0865C119.624 18.6865 119.338 18.3665 118.978 18.1265C118.631 17.8865 118.191 17.7665 117.658 17.7665V17.3665C118.044 17.3665 118.384 17.2865 118.678 17.1265C118.971 16.9532 119.218 16.7332 119.418 16.4665C119.631 16.1998 119.804 15.9132 119.938 15.6065C120.071 15.2998 120.164 15.0065 120.218 14.7265H120.678Z" fill="white"/>
<rect x="48" y="0.5" width="17.915" height="31.4396" rx="0.5" stroke="#E3E3E3"/>
<path d="M49.7256 4.24316C49.7256 3.69088 50.1733 3.24316 50.7256 3.24316H63.19C63.7423 3.24316 64.19 3.69088 64.19 4.24316V16.7851C64.19 17.3373 63.7423 17.7851 63.19 17.7851H50.7256C50.1733 17.7851 49.7256 17.3373 49.7256 16.7851V4.24316Z" fill="#E3E3E3"/>
</svg>
