<svg width="125" height="33" viewBox="0 0 125 33" fill="none" xmlns="http://www.w3.org/2000/svg">
<path d="M8.59951 10.3647C10.0662 10.3647 11.3462 10.6514 12.4395 11.2247C13.5328 11.798 14.3795 12.6247 14.9795 13.7047C15.5928 14.7714 15.8995 16.0714 15.8995 17.6047C15.8995 19.098 15.5862 20.4047 14.9595 21.5247C14.3462 22.6447 13.4862 23.518 12.3795 24.1447C11.2728 24.7714 10.0062 25.0847 8.57951 25.0847C7.12618 25.0847 5.84618 24.798 4.73951 24.2247C3.64618 23.6514 2.79285 22.8247 2.17951 21.7447C1.57951 20.6647 1.27951 19.3647 1.27951 17.8447C1.27951 16.3514 1.59285 15.0447 2.21951 13.9247C2.85951 12.8047 3.72618 11.9314 4.81951 11.3047C5.91285 10.678 7.17285 10.3647 8.59951 10.3647ZM8.51951 10.7247C7.81285 10.7247 7.19951 11.0247 6.67951 11.6247C6.15951 12.2247 5.75285 13.0514 5.45951 14.1047C5.17951 15.158 5.03951 16.378 5.03951 17.7647C5.03951 19.178 5.19951 20.4114 5.51951 21.4647C5.85285 22.5047 6.29285 23.3114 6.83951 23.8847C7.38618 24.4447 7.99285 24.7247 8.65951 24.7247C9.36618 24.7247 9.97951 24.4247 10.4995 23.8247C11.0328 23.2247 11.4395 22.398 11.7195 21.3447C11.9995 20.278 12.1395 19.058 12.1395 17.6847C12.1395 16.258 11.9795 15.0247 11.6595 13.9847C11.3395 12.9447 10.8995 12.1447 10.3395 11.5847C9.79285 11.0114 9.18618 10.7247 8.51951 10.7247ZM30.5347 10.6447V11.0447C30.1347 11.1114 29.828 11.238 29.6147 11.4247C29.4013 11.6114 29.2547 11.898 29.1747 12.2847C29.108 12.6714 29.0747 13.218 29.0747 13.9247V24.8247C28.9013 24.798 28.7147 24.7847 28.5147 24.7847C28.3147 24.7847 28.1013 24.798 27.8747 24.8247L19.0947 14.4847V21.2047C19.0947 22.018 19.1347 22.6447 19.2147 23.0847C19.2947 23.5114 19.4747 23.818 19.7547 24.0047C20.0347 24.1914 20.4747 24.3247 21.0747 24.4047V24.8047C20.8213 24.778 20.4813 24.7647 20.0547 24.7647C19.6413 24.7514 19.248 24.7447 18.8747 24.7447C18.5813 24.7447 18.2747 24.7514 17.9547 24.7647C17.648 24.7647 17.388 24.778 17.1747 24.8047V24.4047C17.6013 24.3247 17.9147 24.198 18.1147 24.0247C18.328 23.838 18.468 23.5514 18.5347 23.1647C18.6013 22.7647 18.6347 22.218 18.6347 21.5247V12.7647C18.6347 12.2714 18.6013 11.9114 18.5347 11.6847C18.468 11.4447 18.328 11.2847 18.1147 11.2047C17.9013 11.1114 17.588 11.058 17.1747 11.0447V10.6447C17.388 10.658 17.648 10.6714 17.9547 10.6847C18.2747 10.698 18.5813 10.7047 18.8747 10.7047C19.208 10.7047 19.528 10.698 19.8347 10.6847C20.1413 10.6714 20.4213 10.658 20.6747 10.6447L28.6147 19.7247V14.2447C28.6147 13.4314 28.5747 12.8114 28.4947 12.3847C28.428 11.9447 28.2547 11.6314 27.9747 11.4447C27.708 11.2447 27.2613 11.1114 26.6347 11.0447V10.6447C26.9013 10.658 27.2413 10.6714 27.6547 10.6847C28.0813 10.698 28.4747 10.7047 28.8347 10.7047C29.1547 10.7047 29.468 10.698 29.7747 10.6847C30.0813 10.6714 30.3347 10.658 30.5347 10.6447Z" fill="white"/>
<path d="M91.8729 10.3647C93.3396 10.3647 94.6196 10.6514 95.7129 11.2247C96.8063 11.798 97.6529 12.6247 98.2529 13.7047C98.8663 14.7714 99.173 16.0714 99.173 17.6047C99.173 19.098 98.8596 20.4047 98.233 21.5247C97.6196 22.6447 96.7596 23.518 95.653 24.1447C94.5463 24.7714 93.2796 25.0847 91.8529 25.0847C90.3996 25.0847 89.1196 24.798 88.0129 24.2247C86.9196 23.6514 86.0663 22.8247 85.4529 21.7447C84.8529 20.6647 84.5529 19.3647 84.5529 17.8447C84.5529 16.3514 84.8663 15.0447 85.4929 13.9247C86.1329 12.8047 86.9996 11.9314 88.0929 11.3047C89.1863 10.678 90.4463 10.3647 91.8729 10.3647ZM91.7929 10.7247C91.0863 10.7247 90.4729 11.0247 89.9529 11.6247C89.4329 12.2247 89.0263 13.0514 88.7329 14.1047C88.4529 15.158 88.3129 16.378 88.3129 17.7647C88.3129 19.178 88.4729 20.4114 88.7929 21.4647C89.1263 22.5047 89.5663 23.3114 90.1129 23.8847C90.6596 24.4447 91.2663 24.7247 91.9329 24.7247C92.6396 24.7247 93.2529 24.4247 93.7729 23.8247C94.3063 23.2247 94.7129 22.398 94.993 21.3447C95.2729 20.278 95.4129 19.058 95.4129 17.6847C95.4129 16.258 95.2529 15.0247 94.9329 13.9847C94.6129 12.9447 94.1729 12.1447 93.6129 11.5847C93.0663 11.0114 92.4596 10.7247 91.7929 10.7247ZM111.368 10.6447C111.315 11.2847 111.275 11.898 111.248 12.4847C111.235 13.0714 111.228 13.5247 111.228 13.8447C111.228 14.138 111.235 14.4114 111.248 14.6647C111.261 14.918 111.275 15.138 111.288 15.3247H110.828C110.628 14.258 110.348 13.418 109.988 12.8047C109.641 12.178 109.235 11.738 108.768 11.4847C108.315 11.2314 107.815 11.1047 107.268 11.1047H106.808C106.448 11.1047 106.168 11.138 105.968 11.2047C105.781 11.258 105.655 11.378 105.588 11.5647C105.535 11.7514 105.508 12.0447 105.508 12.4447V22.5247C105.508 23.058 105.561 23.458 105.668 23.7247C105.775 23.978 105.988 24.1447 106.308 24.2247C106.628 24.3047 107.088 24.3514 107.688 24.3647V24.8047C107.248 24.7914 106.681 24.778 105.988 24.7647C105.295 24.7514 104.568 24.7447 103.808 24.7447C103.208 24.7447 102.615 24.7514 102.028 24.7647C101.455 24.778 100.921 24.7914 100.428 24.8047V24.4047C100.841 24.378 101.148 24.3247 101.348 24.2447C101.561 24.1647 101.701 24.0047 101.768 23.7647C101.848 23.5247 101.888 23.1647 101.888 22.6847V12.7647C101.888 12.2714 101.848 11.9114 101.768 11.6847C101.701 11.4447 101.561 11.2847 101.348 11.2047C101.148 11.1114 100.841 11.058 100.428 11.0447V10.6447C101.001 10.658 101.601 10.6714 102.228 10.6847C102.868 10.6847 103.495 10.6914 104.108 10.7047C104.735 10.7047 105.315 10.7047 105.848 10.7047C106.395 10.7047 106.841 10.7047 107.188 10.7047C107.801 10.7047 108.495 10.7047 109.268 10.7047C110.055 10.6914 110.755 10.6714 111.368 10.6447ZM108.428 17.5247C108.428 17.5247 108.428 17.5914 108.428 17.7247C108.428 17.858 108.428 17.9247 108.428 17.9247H104.908C104.908 17.9247 104.908 17.858 104.908 17.7247C104.908 17.5914 104.908 17.5247 104.908 17.5247H108.428ZM108.968 14.8847C108.915 15.6447 108.888 16.2247 108.888 16.6247C108.901 17.0247 108.908 17.3914 108.908 17.7247C108.908 18.058 108.915 18.4247 108.928 18.8247C108.941 19.2247 108.975 19.8047 109.028 20.5647H108.568C108.488 20.0847 108.341 19.6447 108.128 19.2447C107.915 18.8447 107.628 18.5247 107.268 18.2847C106.921 18.0447 106.481 17.9247 105.948 17.9247V17.5247C106.335 17.5247 106.675 17.4447 106.968 17.2847C107.261 17.1114 107.508 16.8914 107.708 16.6247C107.921 16.358 108.095 16.0714 108.228 15.7647C108.361 15.458 108.455 15.1647 108.508 14.8847H108.968ZM123.36 10.6447C123.307 11.2847 123.267 11.898 123.24 12.4847C123.227 13.0714 123.22 13.5247 123.22 13.8447C123.22 14.138 123.227 14.4114 123.24 14.6647C123.254 14.918 123.267 15.138 123.28 15.3247H122.82C122.62 14.258 122.34 13.418 121.98 12.8047C121.634 12.178 121.227 11.738 120.76 11.4847C120.307 11.2314 119.807 11.1047 119.26 11.1047H118.8C118.44 11.1047 118.16 11.138 117.96 11.2047C117.774 11.258 117.647 11.378 117.58 11.5647C117.527 11.7514 117.5 12.0447 117.5 12.4447V22.5247C117.5 23.058 117.554 23.458 117.66 23.7247C117.767 23.978 117.98 24.1447 118.3 24.2247C118.62 24.3047 119.08 24.3514 119.68 24.3647V24.8047C119.24 24.7914 118.674 24.778 117.98 24.7647C117.287 24.7514 116.56 24.7447 115.8 24.7447C115.2 24.7447 114.607 24.7514 114.02 24.7647C113.447 24.778 112.914 24.7914 112.42 24.8047V24.4047C112.834 24.378 113.14 24.3247 113.34 24.2447C113.554 24.1647 113.694 24.0047 113.76 23.7647C113.84 23.5247 113.88 23.1647 113.88 22.6847V12.7647C113.88 12.2714 113.84 11.9114 113.76 11.6847C113.694 11.4447 113.554 11.2847 113.34 11.2047C113.14 11.1114 112.834 11.058 112.42 11.0447V10.6447C112.994 10.658 113.594 10.6714 114.22 10.6847C114.86 10.6847 115.487 10.6914 116.1 10.7047C116.727 10.7047 117.307 10.7047 117.84 10.7047C118.387 10.7047 118.834 10.7047 119.18 10.7047C119.794 10.7047 120.487 10.7047 121.26 10.7047C122.047 10.6914 122.747 10.6714 123.36 10.6447ZM120.42 17.5247C120.42 17.5247 120.42 17.5914 120.42 17.7247C120.42 17.858 120.42 17.9247 120.42 17.9247H116.9C116.9 17.9247 116.9 17.858 116.9 17.7247C116.9 17.5914 116.9 17.5247 116.9 17.5247H120.42ZM120.96 14.8847C120.907 15.6447 120.88 16.2247 120.88 16.6247C120.894 17.0247 120.9 17.3914 120.9 17.7247C120.9 18.058 120.907 18.4247 120.92 18.8247C120.934 19.2247 120.967 19.8047 121.02 20.5647H120.56C120.48 20.0847 120.334 19.6447 120.12 19.2447C119.907 18.8447 119.62 18.5247 119.26 18.2847C118.914 18.0447 118.474 17.9247 117.94 17.9247V17.5247C118.327 17.5247 118.667 17.4447 118.96 17.2847C119.254 17.1114 119.5 16.8914 119.7 16.6247C119.914 16.358 120.087 16.0714 120.22 15.7647C120.354 15.458 120.447 15.1647 120.5 14.8847H120.96Z" fill="#E3E3E3" fill-opacity="0.6"/>
<rect x="66.1978" y="31.9395" width="17.915" height="31.2668" rx="0.5" transform="rotate(-180 66.1978 31.9395)" stroke="#E3E3E3"/>
<path d="M64.4722 28.2139C64.4722 28.7662 64.0245 29.2139 63.4722 29.2139L51.0078 29.2139C50.4555 29.2139 50.0078 28.7662 50.0078 28.2139L50.0078 15.7495C50.0078 15.1972 50.4555 14.7495 51.0078 14.7495L63.4722 14.7495C64.0245 14.7495 64.4722 15.1972 64.4722 15.7495L64.4722 28.2139Z" fill="#E3E3E3"/>
</svg>
