<svg xmlns="http://www.w3.org/2000/svg" width="20" height="20" viewBox="0 0 20 20"><g><g><g/><g><path d="M18 .75c.69 0 1.25.56 1.25 1.25v16c0 .69-.56 1.25-1.25 1.25h-5c-.69 0-1.25-.56-1.25-1.25V2c0-.69.56-1.25 1.25-1.25zM13 0a2 2 0 0 0-2 2v16a2 2 0 0 0 2 2h5a2 2 0 0 0 2-2V2a2 2 0 0 0-2-2z"/></g><g><path d="M13.25 3.625c0-.207.168-.375.375-.375h3.75a.375.375 0 0 1 0 .75h-3.75a.375.375 0 0 1-.375-.375z"/></g><g><path d="M13.25 16.625c0-.207.168-.375.375-.375h3.75a.375.375 0 0 1 0 .75h-3.75a.375.375 0 0 1-.375-.375z"/></g><g><path d="M7 .75c.69 0 1.25.56 1.25 1.25v16c0 .69-.56 1.25-1.25 1.25H2c-.69 0-1.25-.56-1.25-1.25V2C.75 1.31 1.31.75 2 .75zM2 0a2 2 0 0 0-2 2v16a2 2 0 0 0 2 2h5a2 2 0 0 0 2-2V2a2 2 0 0 0-2-2z"/></g><g><path d="M2.25 3.625c0-.207.168-.375.375-.375h3.75a.375.375 0 1 1 0 .75h-3.75a.375.375 0 0 1-.375-.375z"/></g><g><path d="M2.25 16.625c0-.207.168-.375.375-.375h3.75a.375.375 0 0 1 0 .75h-3.75a.375.375 0 0 1-.375-.375z"/></g></g></g></svg>