<svg id="Capa_1" enable-background="new 0 0 439.818 439.818" height="512" viewBox="0 0 439.818 439.818" width="512" xmlns="http://www.w3.org/2000/svg"><g><path d="m252.949 190.629v-46.036h-28.642c-2.445-10.57-6.636-20.658-12.401-29.849l20.269-20.269-32.563-32.568-20.269 20.269c-9.186-5.738-19.262-9.907-29.816-12.336v-28.701h-46.1v28.679c-10.556 2.428-20.635 6.598-29.822 12.336l-20.269-20.268-32.563 32.568 20.269 20.269c-5.765 9.19-9.955 19.278-12.395 29.849h-28.647v46.036h28.647c2.44 10.572 6.629 20.663 12.395 29.854l-20.269 20.269 32.563 32.563 20.269-20.269c9.184 5.75 19.263 9.929 29.822 12.363v28.701h46.1v-28.679c10.557-2.436 20.634-6.614 29.816-12.363l20.269 20.269 32.563-32.563-20.269-20.269c5.766-9.192 9.957-19.282 12.401-29.854h28.642zm-126.474 33.571c-31.237 0-56.56-25.323-56.56-56.56s25.323-56.56 56.56-56.56c31.226 0 56.545 25.306 56.56 56.533.024 31.228-25.272 56.563-56.501 56.586-.02.001-.04.001-.059.001z" fill="#69b0ee"/><path d="m439.818 309.187v-39.825h-24.78c-2.114-9.144-5.74-17.871-10.727-25.821l17.534-17.534-28.154-28.175-17.534 17.539c-7.946-4.976-16.668-8.591-25.804-10.695v-24.812h-39.884v24.812c-9.133 2.105-17.851 5.72-25.794 10.695l-17.534-17.539-28.17 28.175 17.534 17.534c-4.988 7.95-8.613 16.677-10.727 25.821h-24.796v39.825h24.78c2.114 9.144 5.74 17.871 10.727 25.821l-17.534 17.534 28.17 28.17 17.534-17.534c7.944 4.973 16.661 8.587 25.794 10.695v24.807h39.9v-24.807c9.132-2.108 17.85-5.722 25.794-10.695l17.544 17.534 28.17-28.17-17.534-17.534c4.988-7.95 8.613-16.677 10.727-25.821zm-109.418 26.657c-25.721.003-46.575-20.846-46.578-46.567s20.846-46.575 46.567-46.578 46.575 20.846 46.578 46.567v.005c.009 25.712-20.828 46.564-46.54 46.572-.009.001-.018.001-.027.001z" fill="#ef5261"/></g></svg>