<?xml version="1.0" encoding="utf-8"?>
<!-- Generator: Adobe Illustrator 25.1.0, SVG Export Plug-In . SVG Version: 6.00 Build 0)  -->
<svg version="1.1" id="Layer_1" xmlns="http://www.w3.org/2000/svg" xmlns:xlink="http://www.w3.org/1999/xlink" x="0px" y="0px"
	 viewBox="0 0 512 410.2" style="enable-background:new 0 0 512 410.2;" xml:space="preserve">
<style type="text/css">
	.st0{fill:#E0F4FF;}
	.st1{fill:#29DAF8;}
	.st2{opacity:0.74;fill:#00C1F1;}
	.st3{fill:#2C3B73;}
	.st4{fill:#6E67D6;}
	.st5{fill:#534CCF;}
	.st6{fill:#FFCE00;}
</style>
<path class="st0" d="M0,394.2V16C0,7.1,7.1,0,16,0H496c8.8,0,16,7.1,16,16v378.2c0,8.8-7.1,16-16,16H16C7.1,410.2,0,403,0,394.2z"/>
<path class="st1" d="M445.5,358.7H66.5c-8.3,0-15-6.7-15-15V66.5c0-8.3,6.7-15,15-15h379.1c8.3,0,15,6.7,15,15v277.2
	C460.5,352,453.8,358.7,445.5,358.7z"/>
<path class="st2" d="M445.5,51.5H256v307.2h189.5c8.3,0,15-6.7,15-15V66.5C460.5,58.2,453.8,51.5,445.5,51.5z"/>
<path class="st3" d="M460.5,343.7v-59.2L396,191.6c-2.8-4-7.2-6.3-11.9-6.3s-9.2,2.4-11.9,6.3L256,358.7h189.9
	C454,358.7,460.5,352,460.5,343.7z"/>
<path class="st4" d="M196.2,144.7c-4.8,0-9.3,2.4-12.1,6.3L51.5,338.9v4.8c0,8.3,6.7,15,14.9,15h288.5L208.3,151
	C205.5,147.1,201,144.7,196.2,144.7z"/>
<path class="st5" d="M256,218.6v140.1h98.9L256,218.6z"/>
<path class="st6" d="M305.4,112.4c-21.5,0-39,17.5-39,39c0,21.5,17.5,39,39,39c21.5,0,39-17.5,39-39
	C344.4,129.9,326.9,112.4,305.4,112.4z"/>
</svg>
