<svg id="Capa_1" enable-background="new 0 0 512.007 512.007" height="512" viewBox="0 0 512.007 512.007" width="512" xmlns="http://www.w3.org/2000/svg"><g><path d="m510.588 439.825c-.021-.067-.042-.135-.064-.202l-20.338-61.8v-151.329c0-24.813-20.187-45-45-45h-172c-24.813 0-45 20.187-45 45v176c0 24.813 20.187 45 45 45h152.664l39.304 26.155c5.162 3.493 10.998 5.231 16.824 5.231 6.249 0 12.485-2.002 17.858-5.988 10.408-7.721 14.629-20.701 10.752-33.067z" fill="#ff712f"/><path d="m510.523 439.623-20.338-61.8v-151.329c0-24.813-20.187-45-45-45h-85.344v266h66.009l39.304 26.155c5.162 3.493 10.998 5.231 16.824 5.231 6.249 0 12.485-2.002 17.858-5.988 10.408-7.721 14.628-20.701 10.751-33.068-.02-.067-.042-.134-.064-.201z" fill="#ff4c04"/><path d="m417.219 367.198-40.932-108.462c-.052-.137-.105-.274-.161-.41-2.711-6.592-9.03-10.876-16.195-10.839-7.127.007-13.476 4.274-16.174 10.87-.046.113-.091.227-.134.341l-41.307 108.458c-2.949 7.742.937 16.408 8.679 19.357 1.757.669 3.561.986 5.336.986 6.044 0 11.741-3.681 14.021-9.665l6.608-17.351h45.662l6.532 17.308c2.925 7.751 11.58 11.663 19.33 8.738 7.748-2.926 11.66-11.58 8.735-19.331zm-68.835-36.716 11.51-30.22 11.405 30.22z" fill="#f5f0eb"/><path d="m376.287 258.736c-.052-.137-.105-.274-.161-.41-2.711-6.592-9.03-10.876-16.195-10.839-.03 0-.059.003-.089.003v52.91l.052-.138 11.405 30.22h-11.457v30h22.779l6.532 17.308c2.925 7.751 11.58 11.663 19.33 8.738s11.663-11.579 8.737-19.33z" fill="#dad0cb"/><path d="m238.822 33.127h-172c-24.813 0-45 20.187-45 45v152.329l-20.338 61.8c-.022.067-.043.135-.064.202-3.877 12.366.343 25.346 10.751 33.068 5.373 3.986 11.609 5.988 17.858 5.988 5.828 0 11.667-1.74 16.829-5.235l39.298-26.151h152.665c24.813 0 45-20.187 45-45v-177c.001-24.814-20.186-45.001-44.999-45.001z" fill="#b9dd39"/><path d="m238.822 33.127h-89.397v267h89.397c24.813 0 45-20.187 45-45v-177c0-24.813-20.187-45-45-45z" fill="#90cc1c"/><path d="m215.428 212.053-6.758-6.758c6.785-10.777 10.727-23.516 10.727-37.164 0-38.583-31.39-69.973-69.973-69.973s-69.973 31.39-69.973 69.973 31.39 69.973 69.973 69.973c14.098 0 27.225-4.205 38.222-11.406l6.568 6.569c2.929 2.929 6.767 4.394 10.606 4.394 3.838 0 7.678-1.465 10.606-4.393 5.86-5.86 5.86-15.357.002-21.215zm-66.003-3.95c-22.041 0-39.973-17.932-39.973-39.973s17.932-39.973 39.973-39.973 39.973 17.932 39.973 39.973c0 5.293-1.043 10.344-2.92 14.971l-6.222-6.222c-5.858-5.858-15.355-5.858-21.213 0s-5.858 15.355 0 21.213l6.572 6.572c-4.953 2.204-10.429 3.439-16.19 3.439z" fill="#f5f0eb"/><path d="m189.398 168.131c0 5.293-1.043 10.344-2.92 14.971l-6.222-6.222c-5.858-5.858-15.355-5.858-21.213 0s-5.858 15.355 0 21.213l6.572 6.572c-4.953 2.204-10.428 3.439-16.19 3.439v30c14.098 0 27.225-4.205 38.222-11.406l6.568 6.569c2.929 2.929 6.767 4.394 10.606 4.394 3.838 0 7.678-1.465 10.606-4.393 5.858-5.858 5.858-15.355 0-21.213l-6.758-6.758c6.785-10.777 10.727-23.516 10.727-37.164 0-38.583-31.39-69.973-69.973-69.973v30c22.043-.002 39.975 17.93 39.975 39.971z" fill="#dad0cb"/></g></svg>